<svg width="34" height="34" viewBox="0 0 34 34" fill="none" xmlns="http://www.w3.org/2000/svg">
<path fill-rule="evenodd" clip-rule="evenodd" d="M17.8889 30.3333C19.5231 30.3333 21.1413 30.0114 22.6512 29.3861C24.161 28.7607 25.5329 27.844 26.6884 26.6884C27.844 25.5329 28.7607 24.161 29.3861 22.6512C30.0114 21.1413 30.3333 19.5231 30.3333 17.8889C30.3333 16.2547 30.0114 14.6364 29.3861 13.1266C28.7607 11.6168 27.844 10.2449 26.6884 9.08934C25.5329 7.93376 24.161 7.01711 22.6512 6.39172C21.1413 5.76633 19.5231 5.44444 17.8889 5.44444C14.5884 5.44444 11.4231 6.75555 9.08934 9.08934C6.75555 11.4231 5.44444 14.5884 5.44444 17.8889C5.44444 21.1894 6.75555 24.3547 9.08934 26.6884C11.4231 29.0222 14.5884 30.3333 17.8889 30.3333ZM14.488 9.67555C15.5663 9.22931 16.7219 8.99976 17.8889 9C18.1246 9 18.3507 8.90635 18.5174 8.73965C18.6841 8.57295 18.7778 8.34686 18.7778 8.11111C18.7778 7.87536 18.6841 7.64927 18.5174 7.48257C18.3507 7.31587 18.1246 7.22222 17.8889 7.22222C15.0599 7.22222 12.3468 8.34603 10.3464 10.3464C8.34603 12.3468 7.22222 15.0599 7.22222 17.8889C7.22222 18.1246 7.31587 18.3507 7.48257 18.5174C7.64927 18.6841 7.87536 18.7778 8.11111 18.7778C8.34686 18.7778 8.57295 18.6841 8.73965 18.5174C8.90635 18.3507 9 18.1246 9 17.8889C8.99985 16.1306 9.52118 14.4117 10.4981 12.9497C11.4749 11.4877 12.8635 10.3483 14.488 9.67555Z" fill="black" fill-opacity="0.25"/>
<path d="M33 33L26.7778 26.7778" stroke="black" stroke-linecap="round"/>
<path d="M16.1111 31.2222C24.4567 31.2222 31.2222 24.4567 31.2222 16.1111C31.2222 7.76547 24.4567 1 16.1111 1C7.76547 1 1 7.76547 1 16.1111C1 24.4567 7.76547 31.2222 16.1111 31.2222Z" stroke="black"/>
</svg>
