<svg width="32" height="32" viewBox="0 0 32 32" fill="none" xmlns="http://www.w3.org/2000/svg">
<path d="M2.78667 17.8893C2.77135 18.0732 2.79437 18.2583 2.85428 18.4328C2.91418 18.6074 3.00966 18.7676 3.13467 18.9033C3.25969 19.039 3.41152 19.1473 3.58055 19.2214C3.74958 19.2954 3.93214 19.3335 4.11667 19.3333H6.66667C7.02029 19.3333 7.35943 19.1929 7.60948 18.9428C7.85952 18.6928 8 18.3536 8 18V4.66668C8 4.31306 7.85952 3.97392 7.60948 3.72387C7.35943 3.47382 7.02029 3.33334 6.66667 3.33334H5.22667C4.89221 3.33336 4.56998 3.45907 4.32387 3.68554C4.07777 3.91202 3.92576 4.22271 3.898 4.55601L2.78667 17.8893ZM12 17.7507C12 18.3073 12.3467 18.806 12.85 19.044C13.9493 19.562 15.822 20.604 16.6667 22.0133C17.7553 23.8287 17.9607 27.1093 17.994 27.8607C17.9987 27.966 17.996 28.0713 18.01 28.1753C18.1907 29.4773 20.7033 27.9567 21.6667 26.3487C22.19 25.4767 22.2567 24.3307 22.202 23.4353C22.1427 22.4787 21.862 21.5533 21.5867 20.6347L21 18.6767H28.238C28.444 18.6767 28.6472 18.629 28.8317 18.5373C29.0161 18.4455 29.1768 18.3123 29.3012 18.1481C29.4255 17.9838 29.5101 17.793 29.5483 17.5906C29.5865 17.3881 29.5773 17.1796 29.5213 16.9813L25.9413 4.30401C25.8623 4.02441 25.6941 3.77828 25.4623 3.60307C25.2306 3.42785 24.9479 3.33314 24.6573 3.33334H13.3333C12.9797 3.33334 12.6406 3.47382 12.3905 3.72387C12.1405 3.97392 12 4.31306 12 4.66668V17.7507Z" stroke="black" stroke-width="2" stroke-linecap="round" stroke-linejoin="round"/>
</svg>
