<svg width="32" height="32" viewBox="0 0 32 32" fill="none" xmlns="http://www.w3.org/2000/svg">
<path d="M2.79266 14.782C2.77668 14.5979 2.79914 14.4125 2.85861 14.2375C2.91808 14.0626 3.01328 13.9019 3.13815 13.7657C3.26302 13.6295 3.41484 13.5207 3.58397 13.4463C3.75311 13.3718 3.93587 13.3334 4.12066 13.3333H6.66666C7.02029 13.3333 7.35942 13.4738 7.60947 13.7239C7.85952 13.9739 8 14.3131 8 14.6667V27.3333C8 27.687 7.85952 28.0261 7.60947 28.2761C7.35942 28.5262 7.02029 28.6667 6.66666 28.6667H5.22266C4.88895 28.6668 4.56734 28.5417 4.32134 28.3162C4.07535 28.0907 3.92286 27.7811 3.894 27.4487L2.79266 14.782ZM12 14.25C12 13.6927 12.3467 13.194 12.85 12.9567C13.9493 12.438 15.822 11.396 16.6667 9.98734C17.7553 8.17134 17.9607 4.89067 17.994 4.13934C17.9987 4.03401 17.996 3.92867 18.01 3.82467C18.1907 2.52267 20.7033 4.04334 21.6667 5.65134C22.19 6.52334 22.2567 7.66934 22.202 8.56467C22.1427 9.52201 21.862 10.4467 21.5867 11.3653L21 13.3233H28.238C28.444 13.3233 28.6472 13.371 28.8317 13.4628C29.0161 13.5545 29.1768 13.6877 29.3012 13.8519C29.4255 14.0162 29.5101 14.207 29.5483 14.4094C29.5865 14.6119 29.5773 14.8204 29.5213 15.0187L25.9413 27.696C25.8623 27.9756 25.6941 28.2217 25.4623 28.3969C25.2305 28.5722 24.9479 28.6669 24.6573 28.6667H13.3333C12.9797 28.6667 12.6406 28.5262 12.3905 28.2761C12.1405 28.0261 12 27.687 12 27.3333V14.25Z" stroke="black" stroke-width="2" stroke-linecap="round" stroke-linejoin="round"/>
</svg>
