<svg width="32" height="32" viewBox="0 0 32 32" fill="none" xmlns="http://www.w3.org/2000/svg">
<path d="M14 8C14 7.72 14 7.582 14.016 7.466C14.0669 7.09942 14.2361 6.75946 14.4978 6.49776C14.7595 6.23606 15.0994 6.06691 15.466 6.016C15.58 6 15.72 6 16 6C16.28 6 16.418 6 16.534 6.016C16.9006 6.06691 17.2405 6.23606 17.5022 6.49776C17.7639 6.75946 17.9331 7.09942 17.984 7.466C18 7.58 18 7.72 18 8C18 8.28 18 8.418 17.984 8.534C17.9331 8.90058 17.7639 9.24054 17.5022 9.50224C17.2405 9.76394 16.9006 9.93309 16.534 9.984C16.42 10 16.28 10 16 10C15.72 10 15.582 10 15.466 9.984C15.0994 9.93309 14.7595 9.76394 14.4978 9.50224C14.2361 9.24054 14.0669 8.90058 14.016 8.534C14 8.42 14 8.28 14 8ZM14 16C14 15.72 14 15.582 14.016 15.466C14.0669 15.0994 14.2361 14.7595 14.4978 14.4978C14.7595 14.2361 15.0994 14.0669 15.466 14.016C15.58 14 15.72 14 16 14C16.28 14 16.418 14 16.534 14.016C16.9006 14.0669 17.2405 14.2361 17.5022 14.4978C17.7639 14.7595 17.9331 15.0994 17.984 15.466C18 15.58 18 15.72 18 16C18 16.28 18 16.418 17.984 16.534C17.9331 16.9006 17.7639 17.2405 17.5022 17.5022C17.2405 17.7639 16.9006 17.9331 16.534 17.984C16.42 18 16.28 18 16 18C15.72 18 15.582 18 15.466 17.984C15.0994 17.9331 14.7595 17.7639 14.4978 17.5022C14.2361 17.2405 14.0669 16.9006 14.016 16.534C14 16.42 14 16.28 14 16ZM14 24C14 23.722 14 23.582 14.016 23.466C14.0672 23.1001 14.2362 22.7608 14.4975 22.4995C14.7588 22.2382 15.0981 22.0692 15.464 22.018C15.582 22.002 15.72 22.002 15.998 22.002C16.276 22.002 16.418 22.002 16.532 22.018C16.8979 22.0692 17.2372 22.2382 17.4985 22.4995C17.7598 22.7608 17.9288 23.1001 17.98 23.466C17.996 23.582 17.996 23.722 17.996 24C17.996 24.278 17.996 24.418 17.98 24.534C17.9288 24.8999 17.7598 25.2392 17.4985 25.5005C17.2372 25.7618 16.8979 25.9308 16.532 25.982C16.416 25.998 16.276 25.998 15.998 25.998C15.72 25.998 15.58 25.998 15.464 25.982C15.0981 25.9308 14.7588 25.7618 14.4975 25.5005C14.2362 25.2392 14.0672 24.8999 14.016 24.534C14 24.418 14 24.278 14 24Z" fill="black"/>
</svg>
